<svg width="221" height="251" viewBox="0 0 221 251" fill="none" xmlns="http://www.w3.org/2000/svg">
<circle opacity="0.6" cx="110.5" cy="110.5" r="110.5" fill="#00227B"/>
<path d="M146.808 221.188H88.3839C78.3635 221.188 70.1655 213.022 70.1655 203.042V151.628C70.1655 141.648 78.3635 133.482 88.3839 133.482H146.809C156.829 133.482 165.027 141.648 165.027 151.628V203.042C165.027 213.022 156.829 221.188 146.808 221.188Z" fill="white"/>
<path d="M146.808 133.482C156.829 133.482 165.027 141.647 165.027 151.627V203.041C165.027 213.022 156.829 221.187 146.808 221.187H88.3841C78.3637 221.187 70.1657 213.022 70.1657 203.041V151.627C70.1657 141.647 78.3637 133.482 88.3841 133.482H146.808ZM146.808 130.614H88.3841C85.5464 130.614 82.7877 131.172 80.1844 132.274C77.675 133.336 75.4198 134.853 73.4814 136.784C71.543 138.715 70.0192 140.962 68.9529 143.46C67.8471 146.053 67.286 148.801 67.286 151.627V203.041C67.286 205.868 67.8471 208.615 68.9529 211.208C70.0192 213.708 71.5422 215.954 73.4814 217.884C75.4198 219.815 77.6758 221.333 80.1844 222.395C82.7877 223.496 85.5464 224.055 88.3841 224.055H146.809C149.647 224.055 152.406 223.496 155.009 222.395C157.518 221.333 159.773 219.816 161.712 217.884C163.65 215.954 165.174 213.707 166.24 211.208C167.346 208.615 167.907 205.868 167.907 203.041V151.627C167.907 148.801 167.346 146.053 166.24 143.46C165.174 140.961 163.651 138.715 161.712 136.784C159.773 134.854 157.517 133.336 155.009 132.274C152.406 131.172 149.646 130.614 146.808 130.614Z" fill="#00227B"/>
<path d="M163.721 189.396C154.624 190.458 145.557 190.72 145.557 190.72C145.557 190.72 140.94 167.787 139.66 149.805C138.717 136.481 139.604 125.878 145.557 129.336C148.296 130.927 151.451 133.924 154.74 137.726C167.077 151.989 181.252 177.601 182.029 182.915C182.531 186.333 173.113 188.293 163.721 189.396Z" fill="white"/>
<path d="M144.339 192.247L144.091 191.014C144.063 190.873 141.239 176.782 139.412 162.192C138.334 153.59 137.807 146.488 137.845 141.083C137.897 133.701 138.973 129.515 141.232 127.908C142.223 127.202 143.91 126.655 146.312 128.05C154.232 132.652 164.284 147.313 169.571 155.642C173.097 161.198 176.473 167.038 179.077 172.086C180.912 175.643 183.17 180.371 183.512 182.699C183.611 183.375 183.545 184.401 182.664 185.445C181.392 186.954 178.748 188.136 174.344 189.162C171.114 189.914 166.965 190.561 162.011 191.086C153.622 191.973 145.68 192.209 145.601 192.211L144.339 192.247ZM143.495 130.167C143.206 130.167 143.055 130.275 142.972 130.333C141.995 131.028 139.068 135.35 142.38 161.808C143.881 173.79 146.059 185.439 146.783 189.184C149.337 189.081 155.397 188.787 161.711 188.119C176.369 186.566 179.644 184.39 180.372 183.527C180.574 183.289 180.557 183.178 180.55 183.13C180.125 180.234 174.595 169.136 167.041 157.235C158.292 143.452 150.188 133.753 144.804 130.625C144.194 130.27 143.778 130.167 143.495 130.167Z" fill="#00227B"/>
<path d="M99.2705 128.49L97.4292 142.362L96.3818 150.249L94.148 167.088C94.148 167.088 90.0654 169.853 83.2744 172.045C80.737 172.865 77.8145 173.598 74.5893 174.079C69.317 174.869 63.2212 174.97 56.6169 173.625C39.6252 170.158 29.4279 157.587 25.0129 151.267C16.4801 139.067 15.167 135.769 17.539 130.633C19.3499 126.697 22.4525 125.979 22.4525 125.979C22.4525 125.979 22.2995 122.833 24.799 121.715C32.2903 118.364 41.9405 127.313 41.9405 127.313C41.9405 127.313 42.3 117.69 47.4711 119.911C51.0336 121.443 51.8416 131.92 51.8416 131.92C51.8416 131.92 56.6235 138.04 64.22 138.852C68.1898 139.276 73.6834 138.129 79.1392 136.463C79.2025 136.444 79.2667 136.426 79.33 136.403C82.2377 135.509 85.1264 134.472 87.7716 133.447C88.958 132.989 90.0951 132.53 91.1614 132.091C95.9284 130.123 99.2705 128.49 99.2705 128.49Z" fill="white"/>
<path opacity="0.35" d="M25.0105 151.267C29.4296 157.586 39.6252 170.159 56.6152 173.625C67.2576 175.793 76.5836 174.2 83.2752 172.042C90.0662 169.853 94.1479 167.086 94.1479 167.086L94.4474 153.798C94.4474 153.798 89.8202 149.357 85.5106 151.168C80.3321 153.343 81.9917 160.739 74.5959 162.796C54.0359 168.514 37.3338 158.067 31.9595 153.48C24.5037 147.118 22.5587 143.11 21.5097 141.457C19.3384 138.035 17.6616 135.347 16.7162 132.939C15.7528 137.012 17.8097 140.968 25.0105 151.267Z" fill="#00227B"/>
<path d="M66.8683 176.148C63.3206 176.148 59.7876 175.793 56.3156 175.084C48.6779 173.526 41.5519 170.019 35.1369 164.658C31.0083 161.208 27.1882 156.988 23.7836 152.119C19.6286 146.175 16.9876 142.093 15.783 138.813C14.6287 135.67 14.7431 133.12 16.1763 130.009C17.5874 126.946 19.7208 125.538 21.0101 124.934C21.2207 123.359 22.041 121.316 24.1851 120.357C30.2768 117.631 37.3065 121.849 40.786 124.445C40.8197 124.269 40.8575 124.089 40.8978 123.906C41.4746 121.33 42.4701 119.581 43.8565 118.71C44.7081 118.175 46.129 117.712 48.0666 118.545C50.0321 119.391 51.4662 121.881 52.4519 126.158C52.9562 128.349 53.199 130.406 53.2903 131.317C54.3484 132.511 58.4836 136.739 64.3811 137.369C75.1469 138.518 98.3768 127.265 98.6105 127.151C99.1058 126.909 99.6949 126.959 100.142 127.28C100.59 127.6 100.825 128.141 100.753 128.685L95.6337 167.281C95.5778 167.702 95.3449 168.079 94.992 168.318C94.8208 168.434 90.7152 171.19 83.8888 173.411C79.8902 174.713 75.7764 175.56 71.6626 175.931C70.0639 176.075 68.4645 176.148 66.8683 176.148ZM22.7987 127.427C22.6054 127.479 20.3206 128.161 18.8964 131.252C16.9785 135.415 17.45 137.841 26.2395 150.414C34.5033 162.235 45.1104 169.755 56.9154 172.162C67.6713 174.356 77.0138 172.511 82.9574 170.577C87.996 168.937 91.4705 166.981 92.7557 166.2L97.4257 130.995C94.9862 132.105 90.9958 133.848 86.5175 135.52C76.5489 139.24 68.9927 140.859 64.0619 140.333C55.9272 139.465 50.8722 133.106 50.6607 132.836C50.4806 132.605 50.3719 132.326 50.3497 132.034C50.3481 132.01 50.1449 129.465 49.5261 126.792C48.4837 122.286 47.2364 121.435 46.8793 121.281C45.9858 120.897 45.5999 121.139 45.4543 121.23C44.1963 122.018 43.5151 125.294 43.4328 127.368C43.4097 127.95 43.0477 128.466 42.5072 128.688C41.9658 128.911 41.3454 128.799 40.9168 128.402C40.8279 128.32 31.9034 120.171 25.411 123.076C23.9152 123.745 23.9424 125.765 23.9465 125.91C23.9909 126.646 23.5219 127.274 22.7987 127.427Z" fill="#00227B"/>
<path d="M43.1716 127.311C43.2061 127.73 43.1436 128.111 43.0597 128.441C43.0177 128.612 42.9659 128.759 42.9132 128.911C42.8597 129.052 42.8013 129.197 42.7437 129.325C42.5076 129.855 42.2525 130.293 42.0098 130.718C41.7663 131.141 41.5318 131.544 41.3138 131.947L41.1542 132.25C41.104 132.352 41.0505 132.452 41.0019 132.555L40.8604 132.863L40.7255 133.174L40.6029 133.491L40.4894 133.812C40.4507 133.919 40.4219 134.029 40.3873 134.138C40.3511 134.247 40.324 134.358 40.2944 134.469C40.1808 134.915 40.0829 135.374 40.0261 135.847C39.9644 136.319 39.9249 136.803 39.9134 137.295C39.9011 137.543 39.906 137.79 39.9036 138.043C39.8994 138.169 39.9101 138.294 39.911 138.421C39.9134 138.548 39.9175 138.675 39.9167 138.803V138.812C39.9167 138.911 39.8361 138.992 39.7357 138.992C39.6658 138.992 39.6057 138.952 39.5761 138.894C39.3359 138.43 39.1186 137.949 38.9508 137.445C38.7739 136.944 38.6472 136.421 38.5542 135.886C38.3716 134.816 38.3757 133.683 38.5764 132.577L38.6595 132.164C38.6916 132.028 38.727 131.893 38.7607 131.756C38.7969 131.621 38.8373 131.488 38.8751 131.353C38.9146 131.219 38.9615 131.089 39.0051 130.957C39.1853 130.432 39.4083 129.934 39.6378 129.467C39.8665 129.001 40.1101 128.561 40.3075 128.179C40.5157 127.792 40.6333 127.478 40.7025 127.309L40.8473 126.954C41.099 126.338 41.8041 126.042 42.422 126.293C42.8589 126.472 43.1345 126.874 43.1716 127.311Z" fill="#00227B"/>
<path d="M54.9715 174.648C54.5939 174.648 54.2294 174.44 54.05 174.08C53.7966 173.574 54.0039 172.959 54.5124 172.707C58.6616 170.651 61.4968 164.234 62.7096 154.15C63.65 146.336 63.2592 139.068 63.2551 138.996C63.2238 138.431 63.6574 137.948 64.2243 137.916C64.7887 137.884 65.2766 138.317 65.3087 138.881C65.3128 138.955 65.7135 146.378 64.755 154.367C64.1881 159.094 63.2625 163.106 62.0037 166.289C60.3746 170.41 58.1622 173.186 55.429 174.541C55.2817 174.614 55.1254 174.648 54.9715 174.648Z" fill="#00227B"/>
<g opacity="0.35">
<g opacity="0.35">
<g opacity="0.35">
<g opacity="0.35">
<path opacity="0.35" d="M187.706 240.583V240.374C186.061 240.444 187.706 240.583 187.706 240.583Z" fill="#00227B"/>
</g>
</g>
</g>
</g>
<path d="M166.947 215.418H68.1414C68.1414 215.418 68.7436 198.434 74.5885 174.078C76.9309 164.31 80.1191 153.356 84.4485 141.836C85.4885 139.07 86.5967 136.272 87.7716 133.446C91.0569 125.564 94.8885 117.491 99.357 109.419H135.732C139.425 116.093 142.684 122.765 145.558 129.335C147.418 133.584 149.117 137.788 150.666 141.917C157.427 159.919 161.398 176.534 163.722 189.395C166.587 205.262 166.947 215.418 166.947 215.418Z" fill="white"/>
<path d="M153.382 154.584C155.292 156.707 156.165 159.179 156.971 161.661C157.376 162.902 157.775 164.146 158.156 165.396C158.347 166.021 158.543 166.644 158.713 167.274C158.888 167.903 159.059 168.534 159.23 169.164L159.73 171.058C159.895 171.69 160.061 172.321 160.215 172.956L161.125 176.766C161.273 177.402 161.435 178.034 161.58 178.671L162.013 180.58L162.458 182.487C162.608 183.122 162.763 183.756 162.903 184.394L163.76 188.215C163.907 188.851 164.034 189.492 164.17 190.13L164.571 192.047L164.772 193.005L164.872 193.484L164.966 193.965L165.342 195.886C165.467 196.527 165.596 197.167 165.732 197.806C165.862 198.446 165.993 199.086 166.129 199.725C166.702 202.276 167.12 204.86 167.294 207.477C167.316 207.804 167.341 208.13 167.357 208.459L167.399 209.443C167.42 210.1 167.438 210.756 167.429 211.418C167.424 212.077 167.41 212.738 167.367 213.401C167.328 214.064 167.273 214.727 167.173 215.395C167.154 215.523 167.033 215.612 166.904 215.593C166.816 215.58 166.747 215.52 166.717 215.443L166.716 215.44C166.244 214.19 165.858 212.935 165.493 211.679C165.314 211.052 165.141 210.422 164.974 209.794L164.734 208.849C164.658 208.533 164.58 208.219 164.501 207.903C164.195 206.642 163.925 205.377 163.683 204.107C163.566 203.471 163.46 202.834 163.363 202.195C163.258 201.556 163.162 200.917 163.062 200.278C162.965 199.638 162.863 198.999 162.759 198.361C162.649 197.724 162.527 197.088 162.402 196.453L162.03 194.548L161.937 194.072L161.837 193.597L161.638 192.647L161.24 190.747C161.105 190.114 160.979 189.479 160.833 188.848L159.983 185.059C159.846 184.426 159.686 183.798 159.536 183.169L159.071 181.283L158.595 179.401C158.517 179.087 158.429 178.775 158.345 178.463L158.089 177.526L157.062 173.781C156.706 172.536 156.343 171.294 155.996 170.047C155.824 169.423 155.651 168.799 155.483 168.174L155.358 167.705L155.225 167.238L154.965 166.303C154.617 165.057 154.287 163.805 153.962 162.551L153.723 161.608C153.643 161.295 153.555 160.983 153.471 160.67C153.304 160.044 153.164 159.41 153.059 158.765C152.955 158.119 152.881 157.464 152.853 156.793C152.839 156.458 152.837 156.119 152.849 155.775C152.862 155.43 152.885 155.082 152.946 154.722L152.948 154.709C152.971 154.572 153.1 154.481 153.237 154.504C153.295 154.514 153.346 154.544 153.382 154.584Z" fill="#00227B"/>
<path d="M67.9096 215.41C67.7574 215.073 67.6529 214.738 67.555 214.401C67.4571 214.063 67.3839 213.73 67.3189 213.394C67.1872 212.722 67.1165 212.054 67.077 211.388C67.0589 211.054 67.0465 210.721 67.0473 210.389C67.0482 210.057 67.0613 209.727 67.077 209.397L67.1329 208.406C67.1502 208.076 67.1708 207.746 67.1979 207.416C67.3008 206.099 67.4011 204.779 67.5558 203.468C67.6257 202.811 67.7039 202.155 67.7812 201.499C67.8191 201.171 67.8701 200.845 67.9145 200.517L68.0536 199.536L68.344 197.577C68.446 196.925 68.5645 196.276 68.6756 195.625C68.9027 194.324 69.1166 193.022 69.3758 191.728C69.6275 190.433 69.8579 189.134 70.1154 187.841C70.3771 186.548 70.6321 185.254 70.8839 183.96C70.9481 183.636 71.0056 183.311 71.0756 182.989L71.2829 182.022L71.6968 180.088L72.1106 178.155C72.146 177.993 72.1781 177.832 72.2151 177.671L72.3286 177.19L72.5557 176.227L73.4632 172.376C73.5365 172.055 73.6187 171.736 73.7002 171.416C73.7792 171.096 73.8598 170.776 73.9355 170.456C74.0885 169.814 74.2399 169.172 74.3855 168.529C74.5345 167.886 74.6801 167.242 74.834 166.601C74.982 165.957 75.168 165.325 75.3539 164.691C75.544 164.06 75.7456 163.431 75.957 162.805C76.1693 162.18 76.3947 161.558 76.6226 160.937L76.9748 160.01C77.034 159.856 77.0998 159.703 77.164 159.55C77.229 159.398 77.2915 159.244 77.359 159.092C77.6248 158.483 77.8938 157.877 78.1801 157.276C78.4632 156.674 78.7585 156.076 79.0687 155.485C79.3789 154.893 79.7006 154.305 80.0577 153.73C80.126 153.619 80.2716 153.585 80.3827 153.654C80.4583 153.701 80.4987 153.783 80.4945 153.867V153.87C80.3465 156.574 79.838 159.148 79.3361 161.72C79.2069 162.362 79.0753 163.002 78.9305 163.64C78.7849 164.277 78.6285 164.91 78.4623 165.54C78.1151 166.797 77.7663 168.054 77.4026 169.307C77.2208 169.934 77.0439 170.562 76.8686 171.191C76.7798 171.504 76.6967 171.82 76.6119 172.135C76.5288 172.45 76.4433 172.765 76.3725 173.084L75.4749 176.893L75.2503 177.846L75.1384 178.322C75.1014 178.481 75.0693 178.64 75.0347 178.799L74.625 180.713L74.2152 182.626L74.0104 183.584C73.9421 183.902 73.8845 184.224 73.8211 184.543C72.7696 189.656 72.0629 194.83 71.3759 199.994L71.1093 201.929C71.0262 202.575 70.9431 203.221 70.8526 203.866L70.3228 207.736C70.2265 208.381 70.1492 209.026 70.0619 209.671C70.0167 209.993 69.969 210.316 69.9089 210.637C69.8497 210.958 69.7913 211.279 69.7188 211.6C69.5749 212.241 69.3963 212.88 69.1849 213.517C69.0796 213.836 68.9537 214.156 68.8245 214.474C68.692 214.792 68.5481 215.111 68.3703 215.428L68.3687 215.432C68.2996 215.555 68.1441 215.599 68.0207 215.53C67.9688 215.5 67.9318 215.458 67.9096 215.41Z" fill="#00227B"/>
<path d="M96.599 193.99C90.9639 196.263 82.2426 195.787 76.2973 195.07C72.7315 194.641 70.2278 191.363 70.7536 187.824C71.2332 184.594 74.0874 182.245 77.3611 182.398C82.9222 182.658 91.2642 182.779 96.5471 181.612" fill="white"/>
<g opacity="0.35">
<g opacity="0.35">
<g opacity="0.35">
<g opacity="0.35">
<path opacity="0.35" d="M96.6005 193.989C90.9637 196.265 82.2425 195.785 76.2972 195.073C72.7313 194.642 70.2285 191.363 70.7542 187.826C70.8587 187.104 71.0866 186.426 71.41 185.808C72.3488 187.593 74.1267 188.909 76.2972 189.171C82.2318 189.889 90.9382 190.364 96.5758 188.103L96.6005 193.989Z" fill="#00227B"/>
</g>
</g>
</g>
</g>
<path d="M85.3954 197.153C82.1348 197.153 78.8931 196.885 76.1171 196.551C73.9911 196.294 72.1045 195.219 70.8045 193.523C69.5021 191.823 68.9583 189.722 69.2726 187.606C69.5589 185.678 70.5478 183.933 72.0568 182.694C73.5674 181.452 75.4762 180.819 77.4311 180.91C85.6233 181.292 92.2967 181.025 96.2221 180.158C97.0103 179.984 98.9685 179.978 100.124 183.679C101.299 187.44 101.169 193.757 97.1609 195.373C93.8559 196.705 89.6104 197.153 85.3954 197.153ZM77.0575 183.882C74.6435 183.882 72.5916 185.633 72.2345 188.042C72.0395 189.354 72.3768 190.659 73.1848 191.714C73.9903 192.765 75.1594 193.431 76.4775 193.59C84.9791 194.615 91.9265 194.266 96.0378 192.608C97.2588 192.116 97.6093 190.145 97.7039 189.321C98.033 186.436 97.1518 183.771 96.5998 183.126C91.2419 184.248 83.1682 184.162 77.292 183.888C77.213 183.884 77.1349 183.882 77.0575 183.882Z" fill="#00227B"/>
<path d="M139.703 193.99C145.338 196.263 154.059 195.787 160.004 195.07C163.57 194.641 166.074 191.363 165.548 187.824C165.068 184.594 162.214 182.245 158.941 182.398C153.38 182.658 145.038 182.779 139.755 181.612" fill="white"/>
<g opacity="0.35">
<g opacity="0.35">
<g opacity="0.35">
<g opacity="0.35">
<path opacity="0.35" d="M160.003 195.073C154.057 195.785 145.337 196.265 139.699 193.989L139.724 188.048C145.361 190.309 154.067 189.834 160.003 189.117C162.163 188.859 163.931 187.553 164.875 185.777C165.207 186.401 165.441 187.089 165.55 187.825C166.072 191.363 163.569 194.642 160.003 195.073Z" fill="#00227B"/>
</g>
</g>
</g>
</g>
<path d="M150.906 197.153C146.691 197.153 142.447 196.705 139.141 195.373C135.133 193.757 135.003 187.439 136.177 183.679C137.333 179.978 139.292 179.984 140.08 180.157C144.006 181.025 150.679 181.292 158.871 180.91C160.827 180.819 162.735 181.452 164.245 182.693C165.754 183.933 166.743 185.677 167.029 187.606C167.344 189.721 166.799 191.823 165.497 193.522C164.197 195.219 162.311 196.294 160.185 196.55C157.409 196.885 154.166 197.153 150.906 197.153ZM139.703 183.126C139.151 183.771 138.27 186.436 138.599 189.321C138.693 190.145 139.043 192.116 140.265 192.608C144.376 194.266 151.324 194.615 159.825 193.59C161.142 193.431 162.312 192.765 163.118 191.714C163.926 190.659 164.263 189.355 164.068 188.042C163.7 185.556 161.526 183.771 159.012 183.888C153.134 184.162 145.061 184.247 139.703 183.126Z" fill="#00227B"/>
<path d="M141.881 177.522V197.358C141.881 201.038 138.856 204.051 135.161 204.051H98.4833C94.7932 204.051 91.7687 201.038 91.7687 197.358V177.522C91.7687 173.842 94.7932 170.834 98.4833 170.834H135.161C137.337 170.834 139.278 171.878 140.51 173.485C141.369 174.608 141.881 176.008 141.881 177.522Z" fill="white"/>
<g opacity="0.35">
<g opacity="0.35">
<g opacity="0.35">
<g opacity="0.35">
<path opacity="0.35" d="M141.879 177.522V197.358C141.879 201.038 138.857 204.049 135.162 204.049H98.4845C94.7895 204.049 91.7667 201.038 91.7667 197.358V189.939C97.2751 195.532 108.108 199.044 118.044 199.096C121.236 199.113 123.812 196.598 124.04 193.426C124.042 193.394 124.044 193.362 124.047 193.331C124.291 190.548 126.593 188.295 129.39 188.094C132.576 187.865 135.265 190.209 135.58 193.255C140.389 187.342 138.981 177.064 140.51 173.485C141.37 174.609 141.879 176.007 141.879 177.522Z" fill="#00227B"/>
</g>
</g>
</g>
</g>
<path d="M135.163 205.541H98.4838C93.9553 205.541 90.271 201.871 90.271 197.361V177.522C90.271 173.012 93.9553 169.342 98.4838 169.342H135.163C139.691 169.342 143.375 173.012 143.375 177.522V197.361C143.375 201.871 139.691 205.541 135.163 205.541ZM98.4838 172.323C95.6058 172.323 93.2642 174.655 93.2642 177.522V197.361C93.2642 200.227 95.6058 202.559 98.4838 202.559H135.163C138.041 202.559 140.382 200.227 140.382 197.361V177.522C140.382 174.655 138.041 172.323 135.163 172.323H98.4838Z" fill="#00227B"/>
<path d="M129.817 193.21C133.016 193.21 135.609 190.627 135.609 187.441C135.609 184.255 133.016 181.672 129.817 181.672C126.618 181.672 124.025 184.255 124.025 187.441C124.025 190.627 126.618 193.21 129.817 193.21Z" fill="#22A7F0"/>
<g opacity="0.7">
<g opacity="0.7">
<g opacity="0.7">
<g opacity="0.7">
<path opacity="0.7" d="M135.609 187.441C135.609 187.836 135.571 188.219 135.496 188.594C134.962 185.956 132.622 183.971 129.818 183.971C127.011 183.971 124.671 185.956 124.136 188.594C124.062 188.219 124.024 187.837 124.024 187.441C124.024 184.253 126.618 181.673 129.818 181.673C133.014 181.673 135.609 184.253 135.609 187.441Z" fill="white"/>
</g>
</g>
</g>
</g>
<g opacity="0.35">
<g opacity="0.35">
<g opacity="0.35">
<g opacity="0.35">
<path opacity="0.35" d="M135.608 187.44C135.608 190.625 133.015 193.208 129.817 193.208C126.619 193.208 124.026 190.625 124.026 187.44C124.026 186.703 124.165 186 124.424 185.353C125.258 187.505 127.359 189.028 129.818 189.028C132.276 189.028 134.377 187.505 135.212 185.353C135.469 186 135.608 186.703 135.608 187.44Z" fill="#00227B"/>
</g>
</g>
</g>
</g>
<path d="M129.817 194.328C126.004 194.328 122.903 191.238 122.903 187.441C122.903 183.643 126.004 180.554 129.817 180.554C133.63 180.554 136.732 183.643 136.732 187.441C136.732 191.238 133.63 194.328 129.817 194.328ZM129.817 182.79C127.243 182.79 125.148 184.877 125.148 187.441C125.148 190.005 127.243 192.091 129.817 192.091C132.391 192.091 134.486 190.005 134.486 187.441C134.486 184.877 132.391 182.79 129.817 182.79Z" fill="#00227B"/>
<path d="M113.404 205.168C112.784 205.168 112.282 204.667 112.282 204.05V190.463L104.947 184.963V170.833C104.947 170.215 105.45 169.715 106.069 169.715C106.689 169.715 107.192 170.215 107.192 170.833V183.847L114.526 189.347V204.05C114.526 204.667 114.024 205.168 113.404 205.168Z" fill="#00227B"/>
<path d="M117.542 214.73C124.031 214.73 130.27 212.332 135.143 208.065C141.893 202.155 153.256 195.107 165.798 199.628C170.831 201.441 174.26 204.767 176.6 208.447C182.626 194.541 195.267 193.707 200.738 201.589C200.738 201.589 191.542 245.29 188.544 246.263C184.25 247.656 173.933 246.191 173.933 246.191C173.933 246.191 138.039 241.351 117.542 241.351C97.0457 241.351 61.1518 246.191 61.1518 246.191C61.1518 246.191 50.8344 247.655 46.5404 246.263C43.5431 245.29 34.3463 201.589 34.3463 201.589C39.8168 193.707 52.4585 194.541 58.4844 208.447C60.8236 204.766 64.2537 201.441 69.2865 199.628C81.8287 195.107 93.1918 202.155 99.9418 208.065C104.815 212.332 111.054 214.73 117.542 214.73Z" fill="white"/>
<g opacity="0.35">
<path d="M200.74 201.588C200.74 201.588 191.542 245.29 188.545 246.263C184.252 247.657 173.932 246.192 173.932 246.192C173.932 246.192 138.04 241.351 117.542 241.351C97.0477 241.351 61.1515 246.192 61.1515 246.192C61.1515 246.192 50.8349 247.657 46.5434 246.263C43.546 245.29 34.3484 201.588 34.3484 201.588C35.2501 200.29 36.3428 199.228 37.5703 198.424C40.5191 211.237 44.702 227.967 46.5434 228.564C50.8357 229.954 61.1515 228.489 61.1515 228.489C61.1515 228.489 97.0477 218.806 117.542 218.806C138.04 218.806 173.932 228.489 173.932 228.489C173.932 228.489 184.252 229.954 188.545 228.564C190.386 227.967 194.569 211.237 197.518 198.424C198.745 199.229 199.838 200.291 200.74 201.588Z" fill="#00227B"/>
</g>
<path d="M52.0744 248.35C49.8233 248.35 47.624 248.182 46.0772 247.681C45.0225 247.338 44.1355 246.174 42.4711 241.009C41.4969 237.986 40.3278 233.777 38.9974 228.498C36.6015 218.993 34.2665 208.333 33.3738 204.192C32.9065 202.023 33.6198 199.781 35.2365 198.34C38.34 195.573 42.4999 194.507 46.6482 195.417C49.263 195.991 51.807 197.35 54.0054 199.349C55.8261 201.005 57.4091 203.073 58.7288 205.519C61.4069 202.115 64.7786 199.667 68.7789 198.226C73.3115 196.592 78.0539 196.267 82.8753 197.262C86.7677 198.065 90.726 199.729 94.6391 202.21C95.3368 202.653 95.5417 203.574 95.0982 204.269C94.6547 204.964 93.7291 205.168 93.0314 204.726C84.9774 199.619 77.1604 198.376 69.7975 201.03C65.645 202.527 62.2643 205.29 59.7507 209.246C59.4537 209.713 58.9206 209.977 58.3685 209.935C57.8156 209.891 57.3318 209.547 57.1113 209.039C54.5936 203.228 50.5457 199.325 46.0048 198.33C42.8076 197.629 39.6103 198.443 37.2334 200.563C36.4156 201.292 36.0585 202.443 36.3012 203.568C37.1437 207.477 39.352 217.563 41.6524 226.778C42.917 231.843 44.0376 235.965 44.9838 239.025C46.3084 243.312 47.0004 244.569 47.2464 244.92C50.6279 245.864 58.2335 245.102 60.9421 244.717C60.9454 244.717 60.9487 244.717 60.952 244.716C61.3115 244.667 97.1814 239.862 117.543 239.862C137.906 239.862 173.775 244.667 174.134 244.716C174.138 244.717 174.142 244.717 174.145 244.717C176.854 245.102 184.459 245.864 187.841 244.92C188.083 244.576 188.756 243.355 190.036 239.243C190.96 236.278 192.053 232.283 193.287 227.367C195.487 218.603 197.596 209.067 198.658 204.163C199.006 202.556 198.401 200.909 197.117 199.967C194.668 198.168 191.632 197.631 188.57 198.455C184.184 199.636 180.421 203.395 177.976 209.04C177.756 209.547 177.272 209.892 176.719 209.936C176.165 209.979 175.633 209.713 175.336 209.246C172.823 205.292 169.443 202.527 165.29 201.031C157.863 198.354 149.979 199.64 141.856 204.855C141.161 205.301 140.235 205.101 139.786 204.409C139.339 203.717 139.539 202.795 140.234 202.348C144.171 199.821 148.155 198.12 152.074 197.291C156.944 196.262 161.733 196.577 166.309 198.227C170.309 199.668 173.681 202.117 176.36 205.521C179.171 200.316 183.165 196.821 187.79 195.577C191.694 194.525 195.741 195.251 198.895 197.566C201.124 199.204 202.18 202.039 201.585 204.791C200.461 209.986 198.233 220.052 195.941 229.088C194.642 234.213 193.5 238.295 192.548 241.222C190.924 246.215 190.051 247.345 189.009 247.682C184.458 249.159 174.25 247.744 173.73 247.67C173.167 247.595 137.645 242.844 117.544 242.844C97.4398 242.844 61.9212 247.595 61.3584 247.67C61.0128 247.717 56.4473 248.35 52.0744 248.35Z" fill="#00227B"/>
<path d="M185.879 246.263H188.545C191.675 246.263 194.512 244.435 195.787 241.588C199.777 232.688 207.053 213.131 200.238 201.197C200.04 200.848 199.827 200.513 199.603 200.192C199.603 200.192 193.06 194.265 188.36 202.65C183.969 210.483 174.754 243.976 185.879 246.263Z" fill="#AFAFB2"/>
<g opacity="0.7">
<g opacity="0.7">
<g opacity="0.7">
<g opacity="0.7">
<path opacity="0.7" d="M185.952 208.233C186.07 208.045 186.188 207.868 186.302 207.703C192.081 199.318 200.127 205.246 200.127 205.246C200.403 205.567 200.665 205.902 200.907 206.25C201.714 207.399 202.359 208.618 202.863 209.894C202.538 206.759 201.724 203.796 200.238 201.197C200.04 200.849 199.827 200.514 199.603 200.193C199.603 200.193 193.06 194.265 188.36 202.65C187.646 203.92 186.81 205.859 185.952 208.233Z" fill="white"/>
</g>
</g>
</g>
</g>
<path d="M202.828 210.788C202.761 210.788 202.692 210.782 202.623 210.771L186.27 208.052C185.598 207.94 185.144 207.307 185.256 206.636C185.367 205.967 186.004 205.514 186.676 205.626L203.029 208.345C203.701 208.456 204.155 209.09 204.043 209.76C203.943 210.363 203.42 210.788 202.828 210.788Z" fill="#00227B"/>
<path d="M202.724 219.588C202.669 219.588 202.614 219.585 202.558 219.577L183.428 217.015C182.752 216.925 182.278 216.306 182.369 215.633C182.459 214.96 183.08 214.488 183.757 214.579L202.887 217.14C203.562 217.23 204.036 217.849 203.946 218.522C203.863 219.14 203.333 219.588 202.724 219.588Z" fill="#00227B"/>
<path d="M201.037 228.207C200.987 228.207 200.936 228.204 200.885 228.198L181.466 225.831C180.789 225.748 180.308 225.135 180.39 224.462C180.473 223.788 181.088 223.308 181.765 223.391L201.185 225.758C201.861 225.841 202.342 226.454 202.26 227.127C202.184 227.751 201.651 228.207 201.037 228.207Z" fill="#00227B"/>
<path d="M197.957 237.607C197.92 237.607 197.882 237.606 197.844 237.603L180.482 236.042C179.804 235.982 179.303 235.383 179.364 234.707C179.425 234.031 180.026 233.532 180.705 233.594L198.066 235.154C198.745 235.215 199.246 235.813 199.185 236.489C199.127 237.127 198.588 237.607 197.957 237.607Z" fill="#00227B"/>
<g opacity="0.35">
<g opacity="0.35">
<g opacity="0.35">
<g opacity="0.35">
<path opacity="0.35" d="M185.878 246.263H188.544C191.674 246.263 194.511 244.435 195.786 241.588C196.817 239.281 198.072 236.264 199.245 232.845C197.645 235.49 194.394 237.167 190.824 237.167H187.646C183.124 236.387 181.423 231.97 181.355 226.181C179.827 235.953 180.246 245.105 185.878 246.263Z" fill="#00227B"/>
</g>
</g>
</g>
</g>
<path d="M188.545 247.492H185.879C185.795 247.492 185.712 247.484 185.63 247.467C183.475 247.023 181.847 245.632 180.79 243.33C178.297 237.903 179.508 228.449 180.964 221.474C182.743 212.95 185.489 205.25 187.283 202.051C188.932 199.109 191.009 197.415 193.456 197.017C197.209 196.408 200.304 199.165 200.434 199.282C200.502 199.344 200.563 199.413 200.616 199.488C200.862 199.839 201.096 200.21 201.312 200.589C204.427 206.044 205.088 213.505 203.277 222.764C201.804 230.292 199.005 237.428 196.915 242.089C195.445 245.371 192.16 247.492 188.545 247.492ZM186.013 245.034H188.545C191.186 245.034 193.587 243.485 194.66 241.088C196.697 236.544 199.425 229.595 200.853 222.296C202.549 213.63 201.98 206.736 199.166 201.805C199.013 201.536 198.849 201.274 198.679 201.023C198.216 200.647 196.116 199.068 193.839 199.446C192.179 199.722 190.698 201.002 189.438 203.249C187.778 206.211 185.091 213.781 183.381 221.975C181.43 231.326 181.307 238.547 183.035 242.308C183.736 243.835 184.711 244.728 186.013 245.034Z" fill="#00227B"/>
<path d="M49.2078 246.263H46.542C43.4123 246.263 40.5746 244.435 39.3001 241.588C35.3097 232.688 28.034 213.131 34.849 201.197C35.0472 200.848 35.2595 200.513 35.4841 200.192C35.4841 200.192 42.0267 194.265 46.7272 202.65C51.1174 210.483 60.3324 243.976 49.2078 246.263Z" fill="#AFAFB2"/>
<g opacity="0.7">
<g opacity="0.7">
<g opacity="0.7">
<g opacity="0.7">
<path opacity="0.7" d="M49.1331 208.233C49.0155 208.045 48.8978 207.868 48.7835 207.703C43.0044 199.318 34.9586 205.246 34.9586 205.246C34.683 205.567 34.4205 205.902 34.1786 206.25C33.3715 207.399 32.7265 208.618 32.2221 209.894C32.5479 206.759 33.3616 203.796 34.8475 201.197C35.0458 200.849 35.2581 200.514 35.4827 200.193C35.4827 200.193 42.0253 194.265 46.7257 202.65C47.4383 203.92 48.2758 205.859 49.1331 208.233Z" fill="white"/>
</g>
</g>
</g>
</g>
<path d="M32.2578 210.788C31.6654 210.788 31.1429 210.362 31.0417 209.761C30.9298 209.091 31.3832 208.458 32.0562 208.346L48.4094 205.627C49.0816 205.515 49.7176 205.967 49.8295 206.637C49.9414 207.307 49.4881 207.94 48.815 208.052L32.4618 210.771C32.3935 210.783 32.3253 210.788 32.2578 210.788Z" fill="#00227B"/>
<path d="M32.3612 219.588C31.7523 219.588 31.2225 219.14 31.1394 218.523C31.0489 217.85 31.5228 217.231 32.1983 217.141L51.3291 214.579C52.0054 214.488 52.6258 214.96 52.7171 215.633C52.8076 216.306 52.3337 216.925 51.6582 217.015L32.5274 219.577C32.4714 219.585 32.4163 219.588 32.3612 219.588Z" fill="#00227B"/>
<path d="M34.0494 228.207C33.4348 228.207 32.9024 227.751 32.8259 227.127C32.7428 226.454 33.2241 225.841 33.9013 225.758L53.3209 223.39C53.9972 223.309 54.6127 223.787 54.6958 224.462C54.7789 225.135 54.2975 225.748 53.6204 225.831L34.2008 228.198C34.1497 228.205 34.0987 228.207 34.0494 228.207Z" fill="#00227B"/>
<path d="M37.1294 237.607C36.4975 237.607 35.9594 237.127 35.9018 236.489C35.8409 235.813 36.3412 235.215 37.0199 235.154L54.3819 233.594C55.0615 233.533 55.6604 234.031 55.7221 234.707C55.783 235.383 55.2828 235.981 54.604 236.042L37.2421 237.603C37.2042 237.606 37.1664 237.607 37.1294 237.607Z" fill="#00227B"/>
<g opacity="0.35">
<g opacity="0.35">
<g opacity="0.35">
<g opacity="0.35">
<path opacity="0.35" d="M49.207 246.263H46.5413C43.4115 246.263 40.5738 244.435 39.2993 241.588C38.2676 239.281 37.0129 236.264 35.8396 232.845C37.4399 235.49 40.6914 237.167 44.2614 237.167H47.4389C51.9608 236.387 53.6623 231.97 53.7297 226.181C55.2584 235.953 54.838 245.105 49.207 246.263Z" fill="#00227B"/>
</g>
</g>
</g>
</g>
<path d="M49.2072 247.492H46.5415C42.9271 247.492 39.6418 245.371 38.1723 242.088C36.0834 237.429 33.2827 230.293 31.8099 222.765C29.999 213.506 30.6597 206.045 33.7747 200.589C33.9911 200.21 34.2256 199.84 34.4707 199.489C34.5234 199.413 34.5843 199.345 34.6526 199.283C34.7826 199.165 37.877 196.408 41.6304 197.018C44.0773 197.416 46.1548 199.109 47.8036 202.051C49.5972 205.251 52.3436 212.95 54.1224 221.475C55.5779 228.45 56.789 237.904 54.2968 243.331C53.2396 245.633 51.6113 247.024 49.4565 247.467C49.3742 247.484 49.2903 247.492 49.2072 247.492ZM36.4067 201.024C36.2364 201.274 36.0735 201.536 35.9205 201.804C33.105 206.735 32.5364 213.629 34.2321 222.296C35.6605 229.596 38.3879 236.544 40.4259 241.088C41.4996 243.486 43.8996 245.034 46.5407 245.034H49.0723C50.3747 244.729 51.3505 243.836 52.0515 242.308C53.7785 238.547 53.6559 231.325 51.7051 221.974C49.9954 213.78 47.3083 206.211 45.648 203.249C44.3883 201.002 42.9073 199.722 41.247 199.446C38.9745 199.069 36.8749 200.643 36.4067 201.024Z" fill="#00227B"/>
<path d="M79.2984 245.141C79.1232 245.141 78.9454 245.1 78.7792 245.013C78.2296 244.727 78.0174 244.051 78.3053 243.504C82.9926 234.584 83.0617 224.552 78.511 213.688C75.0785 205.494 70.1633 199.887 70.1139 199.831C69.7042 199.368 69.7486 198.662 70.2135 198.253C70.6783 197.845 71.3875 197.888 71.7973 198.352C72.0071 198.588 76.9757 204.246 80.5564 212.764C82.6693 217.789 83.8475 222.763 84.0597 227.546C84.3263 233.56 83.0593 239.278 80.2939 244.54C80.0932 244.923 79.7024 245.141 79.2984 245.141Z" fill="#00227B"/>
<path d="M156.242 245.141C155.838 245.141 155.448 244.923 155.247 244.541C152.482 239.279 151.215 233.561 151.481 227.547C151.693 222.764 152.872 217.79 154.985 212.764C158.565 204.247 163.534 198.588 163.744 198.352C164.154 197.889 164.863 197.845 165.328 198.254C165.793 198.662 165.838 199.368 165.427 199.831C165.378 199.887 160.462 205.494 157.03 213.688C152.479 224.553 152.548 234.584 157.236 243.504C157.523 244.051 157.31 244.726 156.762 245.013C156.595 245.1 156.418 245.141 156.242 245.141Z" fill="#00227B"/>
<g opacity="0.35">
<path d="M154.74 137.726C153.445 139.202 152.083 140.603 150.665 141.919C147.297 145.042 143.607 147.7 139.66 149.806C132.991 153.369 125.594 155.367 117.803 155.403C110.192 155.437 102.947 153.596 96.3809 150.249C92.0811 148.054 88.0734 145.217 84.4475 141.837C82.644 140.152 80.9335 138.337 79.3283 136.403C82.2359 135.509 85.1247 134.472 87.7698 133.447C91.0551 125.565 94.8867 117.492 99.3552 109.419H135.73C139.424 116.094 142.683 122.765 145.557 129.336C148.296 130.927 151.451 133.924 154.74 137.726Z" fill="#00227B"/>
</g>
<path d="M173.09 101.734C172.457 101.802 171.888 101.345 171.82 100.714L168.269 67.8089C168.201 67.1779 168.659 66.6116 169.293 66.5436C175.938 65.8323 181.904 70.6213 182.618 77.2402L183.83 88.4613C184.545 95.0802 179.736 101.022 173.09 101.734Z" fill="white"/>
<path d="M172.964 102.024C172.638 102.024 172.323 101.914 172.065 101.706C171.766 101.466 171.579 101.125 171.538 100.744L167.987 67.8392C167.946 67.4589 168.057 67.0852 168.298 66.7878C168.539 66.4903 168.882 66.3035 169.264 66.2625C176.055 65.5356 182.173 70.4467 182.903 77.2107L184.113 88.4318C184.467 91.7081 183.518 94.9253 181.441 97.4911C179.365 100.057 176.41 101.664 173.121 102.016L173.09 101.734L173.121 102.016C173.069 102.021 173.016 102.024 172.964 102.024ZM170.596 66.7566C170.175 66.7566 169.751 66.7788 169.324 66.8247C169.093 66.8492 168.886 66.9623 168.74 67.1418C168.595 67.3221 168.528 67.5474 168.553 67.7777L172.103 100.683C172.128 100.913 172.241 101.12 172.422 101.265C172.603 101.41 172.829 101.476 173.061 101.452C176.199 101.116 179.018 99.5824 180.999 97.1346C182.981 94.6869 183.886 91.6171 183.548 88.4908L182.338 77.2697C181.686 71.2425 176.551 66.7566 170.596 66.7566Z" fill="#00227B"/>
<g opacity="0.35">
<g opacity="0.35">
<g opacity="0.35">
<g opacity="0.35">
<path opacity="0.35" d="M183.262 83.1994L183.832 88.4621C184.545 95.0785 179.737 101.022 173.091 101.736C172.457 101.805 171.889 101.344 171.82 100.714L170.873 91.967C171.094 92.3464 171.525 92.5791 171.99 92.5332L172.773 92.4472C178.024 91.8858 182.131 88.0548 183.262 83.1994Z" fill="#00227B"/>
</g>
</g>
</g>
</g>
<path d="M172.963 103.318C172.341 103.318 171.742 103.108 171.25 102.714C170.681 102.257 170.325 101.607 170.247 100.883L166.696 67.9777C166.618 67.2541 166.828 66.5428 167.286 65.9757C167.745 65.4086 168.398 65.0538 169.124 64.976C176.626 64.1729 183.387 69.5994 184.193 77.0722L185.404 88.2933C185.794 91.913 184.746 95.4678 182.452 98.3032C180.159 101.138 176.894 102.914 173.259 103.302C173.161 103.312 173.061 103.318 172.963 103.318ZM172.923 100.166H172.922C172.922 100.166 172.922 100.166 172.923 100.166ZM169.892 68.0744L173.348 100.113C175.971 99.7258 178.316 98.3917 179.989 96.3242C181.752 94.1452 182.558 91.4131 182.257 88.6301L181.047 77.409C180.442 71.8071 175.486 67.7007 169.892 68.0744Z" fill="#00227B"/>
<path d="M60.245 78.2153C60.8785 78.1473 61.4471 78.6038 61.5154 79.2348L65.0656 112.14C65.1339 112.771 64.6756 113.337 64.0421 113.405C57.3966 114.117 51.4308 109.328 50.7166 102.709L49.5063 91.4876C48.7905 84.8687 53.5996 78.9266 60.245 78.2153Z" fill="white"/>
<path d="M62.739 113.759C56.4975 113.759 51.1142 109.057 50.433 102.739L49.2227 91.5179C48.4929 84.754 53.4237 78.6603 60.2148 77.9335L60.2452 78.2153L60.2148 77.9335C61.0022 77.849 61.713 78.4194 61.7978 79.2045L65.348 112.11C65.4328 112.895 64.8601 113.602 64.0719 113.686C63.6251 113.735 63.1792 113.759 62.739 113.759ZM60.3686 78.4915C60.3374 78.4915 60.3069 78.4932 60.2749 78.4964C53.7956 79.1897 49.091 85.0039 49.7879 91.4573L50.9982 102.678C51.6943 109.132 57.5309 113.818 64.011 113.124C64.4874 113.073 64.8338 112.646 64.7828 112.171L61.2325 79.2659C61.1848 78.8218 60.8064 78.4915 60.3686 78.4915Z" fill="#00227B"/>
<g opacity="0.35">
<g opacity="0.35">
<g opacity="0.35">
<g opacity="0.35">
<path opacity="0.35" d="M64.0838 103.011L65.0678 112.14C65.1369 112.771 64.6745 113.337 64.0418 113.405C60.5533 113.777 57.2491 112.636 54.7956 110.507C52.5799 108.584 51.0578 105.852 50.718 102.71L50.2079 97.982C52.5421 101.929 57.0566 104.368 61.9289 103.848L63.1343 103.718C63.5737 103.671 63.9217 103.388 64.0838 103.011Z" fill="#00227B"/>
</g>
</g>
</g>
</g>
<path d="M62.7383 115.052C55.8419 115.052 49.895 109.858 49.1421 102.877L47.9318 91.6556C47.1255 84.1828 52.5739 77.45 60.0766 76.6469C61.5757 76.4863 62.9283 77.5712 63.0896 79.0651L66.6398 111.971C66.8011 113.466 65.7117 114.812 64.211 114.972C63.7165 115.026 63.2245 115.052 62.7383 115.052ZM59.9878 79.8371C54.4424 80.6566 50.475 85.7176 51.0789 91.3196L52.2892 102.541C52.8939 108.143 57.8502 112.248 63.4442 111.875L59.9878 79.8371Z" fill="#00227B"/>
<path d="M116.673 146.37C147.945 146.37 173.296 121.121 173.296 89.974C173.296 58.8271 147.945 33.5776 116.673 33.5776C85.4016 33.5776 60.0509 58.8271 60.0509 89.974C60.0509 121.121 85.4016 146.37 116.673 146.37Z" fill="white"/>
<path d="M116.619 146.655C109.676 146.655 102.894 145.415 96.4282 142.96C89.5524 140.351 83.3232 136.485 77.9119 131.471C72.5006 126.457 68.1811 120.547 65.0719 113.905C61.8533 107.028 60.0811 99.6643 59.8038 92.0178C59.5265 84.3712 60.7615 76.8993 63.4741 69.8091C66.0938 62.9608 69.9756 56.7565 75.0092 51.3668C80.0429 45.9771 85.9783 41.6741 92.6476 38.5773C99.5522 35.3715 106.946 33.6063 114.623 33.3302C122.3 33.054 129.802 34.284 136.92 36.9859C143.796 39.5951 150.025 43.4614 155.437 48.4749C160.848 53.4893 165.167 59.3993 168.277 66.0412C171.495 72.9182 173.268 80.2821 173.545 87.9286C173.822 95.5751 172.587 103.047 169.874 110.137C167.255 116.986 163.373 123.19 158.339 128.58C153.304 133.969 147.37 138.271 140.702 141.368C133.797 144.574 126.404 146.339 118.727 146.615C118.022 146.642 117.319 146.655 116.619 146.655ZM116.7 33.8596C116.016 33.8596 115.333 33.8719 114.642 33.8964C83.598 35.0126 59.2525 61.076 60.3723 91.9965C60.9145 106.975 67.281 120.847 78.2986 131.056C88.8061 140.793 102.346 146.087 116.623 146.088C117.316 146.088 118.008 146.075 118.704 146.05C133.743 145.51 147.671 139.169 157.921 128.195C168.171 117.222 173.517 102.929 172.975 87.9507C171.88 57.717 146.834 33.8596 116.7 33.8596Z" fill="#00227B"/>
<g opacity="0.35">
<g opacity="0.35">
<g opacity="0.35">
<g opacity="0.35">
<path opacity="0.35" d="M172.435 80.1584C172.888 82.6938 173.165 85.2916 173.261 87.941C174.384 119.067 149.966 145.21 118.715 146.335C87.4638 147.454 61.2161 123.133 60.0864 92.0072C60.0535 91.1123 60.042 90.2158 60.0527 89.3316C64.8609 116.63 89.2616 136.904 117.855 135.877C148.207 134.785 172.111 110.095 172.435 80.1584Z" fill="#00227B"/>
</g>
</g>
</g>
</g>
<path d="M116.618 147.948C109.517 147.948 102.58 146.679 95.9661 144.169C88.934 141.5 82.5617 137.546 77.0278 132.418C71.4939 127.29 67.0757 121.244 63.8957 114.451C60.603 107.417 58.7905 99.8839 58.5075 92.0637C58.2244 84.2434 59.4874 76.6002 62.2625 69.3478C64.9423 62.3438 68.9121 55.9969 74.0609 50.4851C79.2098 44.9733 85.2776 40.5719 92.0992 37.4055C99.1617 34.1259 106.725 32.3206 114.576 32.0387C122.429 31.7568 130.102 33.0147 137.383 35.7788C144.415 38.4479 150.788 42.4018 156.321 47.5301C161.855 52.6584 166.274 58.7036 169.454 65.4971C172.746 72.5315 174.559 80.0641 174.842 87.8844C175.125 95.7046 173.862 103.348 171.087 110.6C168.407 117.604 164.437 123.951 159.288 129.463C154.139 134.975 148.07 139.375 141.249 142.543C134.187 145.822 126.624 147.627 118.772 147.909C118.053 147.935 117.334 147.948 116.618 147.948ZM116.701 35.1536C116.032 35.1536 115.364 35.1659 114.691 35.1896C84.3611 36.2795 60.5767 61.7423 61.671 91.9506C62.2008 106.584 68.4209 120.136 79.1843 130.11C89.4499 139.623 102.677 144.795 116.626 144.795C117.302 144.795 117.98 144.783 118.66 144.758C133.352 144.231 146.958 138.035 156.972 127.315C166.987 116.595 172.21 102.632 171.679 87.9983C170.609 58.4603 146.139 35.1536 116.701 35.1536Z" fill="#00227B"/>
<path d="M173.132 89.3947C173.699 100.416 170.633 110.832 164.925 119.611C160.646 126.193 142.285 138.267 118.917 139.669C97.2491 140.968 76.9343 130.463 72.0027 124.351C65.4239 116.198 61.306 106.149 60.7391 95.1277C59.2392 65.9618 83.7764 52.5871 114.815 51.0039C145.852 49.4207 171.633 60.2287 173.132 89.3947Z" fill="#3949AB"/>
<path d="M115.155 140.864C104.381 140.864 95.0108 138.19 88.7908 135.8C80.9145 132.774 73.9909 128.547 71.1532 125.03C64.1885 116.399 60.2113 106.078 59.651 95.1826C59.2791 87.9532 60.4762 81.3933 63.207 75.6848C65.7781 70.3123 69.7216 65.6577 74.9297 61.8488C84.4441 54.8898 98.2163 50.7654 114.757 49.9221C131.299 49.0789 145.421 51.7799 155.6 57.7342C161.171 60.9933 165.572 65.2226 168.68 70.3058C171.983 75.7061 173.846 82.1103 174.217 89.3397C174.778 100.235 171.879 110.906 165.837 120.2C163.326 124.062 157.091 128.795 149.565 132.552C142.954 135.852 132.281 139.953 118.98 140.75C117.689 140.827 116.412 140.864 115.155 140.864ZM120.598 51.9372C118.724 51.9372 116.816 51.9864 114.869 52.0856C98.7536 52.9075 85.3886 56.8877 76.2173 63.5951C65.978 71.0843 61.1353 81.6752 61.8239 95.072C62.3604 105.509 66.173 115.399 72.8489 123.673C74.8351 126.134 80.4068 130.258 89.574 133.779C96.3182 136.369 106.871 139.306 118.85 138.588C131.783 137.812 142.162 133.823 148.592 130.614C157.207 126.314 162.283 121.682 164.013 119.023C169.805 110.113 172.583 99.8872 172.047 89.4504C171.358 76.0536 165.454 66.0109 154.5 59.6026C145.873 54.5563 134.235 51.9372 120.598 51.9372Z" fill="#00227B"/>
<g opacity="0.5">
<g opacity="0.5">
<g opacity="0.5">
<g opacity="0.5">
<path d="M161.859 87.2866C162.566 81.8198 159.915 76.9746 155.938 76.4645C151.96 75.9545 148.163 79.9727 147.457 85.4396C146.75 90.9064 149.401 95.7516 153.378 96.2616C157.356 96.7717 161.153 92.7534 161.859 87.2866Z" fill="white"/>
</g>
</g>
</g>
</g>
<g opacity="0.5">
<g opacity="0.5">
<g opacity="0.5">
<g opacity="0.5">
<path d="M150.605 107.607C151.274 105.166 150.113 102.724 148.01 102.152C145.907 101.579 143.66 103.094 142.991 105.534C142.321 107.975 143.483 110.417 145.585 110.989C147.688 111.561 149.935 110.047 150.605 107.607Z" fill="white"/>
</g>
</g>
</g>
</g>
<g opacity="0.35">
<path d="M160.803 62.7429C168.009 68.9218 172.528 77.6795 173.132 89.3931C173.698 100.417 170.63 110.832 164.927 119.611C160.646 126.193 142.283 138.267 118.915 139.671C110.664 140.169 102.612 138.951 95.5262 136.913C124.213 134.577 146.575 119.767 151.882 111.603C159.127 100.461 163.018 87.2395 162.297 73.2543C162.107 69.5159 161.595 66.0159 160.803 62.7429Z" fill="#00227B"/>
</g>
<path d="M63.6916 71.5579C63.3723 71.5579 63.0515 71.4588 62.7766 71.2531C62.13 70.768 61.981 69.869 62.4212 69.206C64.771 65.3611 67.7716 61.8471 71.3391 58.7626C74.8128 55.7601 78.8526 53.1386 83.3457 50.9711C87.745 48.8494 92.6075 47.1499 97.7975 45.919C102.941 44.6996 108.431 43.9342 114.118 43.6441C119.711 43.359 125.191 43.5515 130.407 44.2153C135.67 44.8856 140.674 46.0386 145.279 47.6407C149.991 49.2805 154.302 51.398 158.094 53.9343C161.991 56.5419 165.362 59.6083 168.115 63.0493C168.595 63.5795 168.645 64.3916 168.195 64.9816C167.686 65.6487 166.731 65.7782 166.061 65.2717L165.902 65.1537L165.781 65.0013C155.588 52.2044 136.814 45.524 114.273 46.6737C91.6079 47.83 73.6486 56.6312 64.9998 70.8204L64.9603 70.8851L64.9084 70.9532C64.6106 71.349 64.154 71.5579 63.6916 71.5579Z" fill="#00227B"/>
<g opacity="0.5">
<g opacity="0.5">
<g opacity="0.5">
<g opacity="0.5">
<path d="M74.2512 111.834C74.2512 111.834 63.7026 83.5248 78.6818 71.2647C93.661 59.0045 116.062 57.9088 115.612 59.3659C115.612 59.3659 91.1228 66.61 82.4237 86.6298C75.7158 102.068 74.2512 111.834 74.2512 111.834Z" fill="white"/>
</g>
</g>
</g>
</g>
<path d="M167.99 249.508H67.5666C64.3151 249.508 61.679 246.882 61.679 243.644C61.679 241.778 63.1978 240.265 65.0712 240.265H170.485C172.358 240.265 173.877 241.778 173.877 243.644C173.877 246.883 171.241 249.508 167.99 249.508Z" fill="#E6E9FA"/>
<g opacity="0.3">
<g opacity="0.3">
<g opacity="0.3">
<g opacity="0.3">
<path opacity="0.3" d="M173.876 243.645C173.876 244.285 173.771 244.901 173.58 245.479C173.053 244.297 171.867 243.477 170.486 243.477H65.072C64.1365 243.477 63.2875 243.853 62.6737 244.469C62.3816 244.76 62.1422 245.099 61.9743 245.479C61.7834 244.902 61.679 244.287 61.679 243.645C61.679 242.714 62.0566 241.868 62.6745 241.257C63.2883 240.642 64.1374 240.265 65.0728 240.265H170.486C172.36 240.264 173.876 241.777 173.876 243.645Z" fill="white"/>
</g>
</g>
</g>
</g>
<g opacity="0.35">
<g opacity="0.35">
<g opacity="0.35">
<g opacity="0.35">
<path opacity="0.35" d="M173.876 243.645C173.876 245.262 173.217 246.731 172.15 247.789C171.087 248.851 169.613 249.507 167.99 249.507H67.5682C64.3167 249.507 61.6781 246.883 61.6781 243.645C61.6781 243.022 61.8468 242.437 62.1454 241.934C63.0357 244.032 65.1312 245.508 67.5674 245.508H167.989C169.613 245.508 171.087 244.853 172.149 243.79C172.681 243.26 173.111 242.631 173.407 241.934C173.708 242.437 173.876 243.022 173.876 243.645Z" fill="#00227B"/>
</g>
</g>
</g>
</g>
<path d="M167.99 250.999H67.5673C63.4954 250.999 60.183 247.7 60.183 243.645C60.183 240.96 62.3765 238.775 65.0718 238.775H170.486C173.181 238.775 175.375 240.96 175.375 243.645C175.375 247.699 172.062 250.999 167.99 250.999ZM65.071 241.757C64.0261 241.757 63.1754 242.603 63.1754 243.645C63.1754 246.056 65.1451 248.018 67.5664 248.018H167.99C170.412 248.018 172.381 246.056 172.381 243.645C172.381 242.604 171.531 241.757 170.486 241.757H65.071Z" fill="#00227B"/>
<path d="M179.739 174.244L169.917 240.263H65.6413L65.2859 237.875L55.8143 174.244C55.5041 172.154 57.1315 170.279 59.2493 170.279H176.303C178.426 170.279 180.05 172.154 179.739 174.244Z" fill="#FF66AC"/>
<path d="M179.739 174.244L169.917 240.263H65.6413L65.2859 237.875L55.8143 174.244C55.5041 172.154 57.1315 170.279 59.2493 170.279H176.303C178.426 170.279 180.05 172.154 179.739 174.244Z" fill="#E6E9FA"/>
<g opacity="0.5">
<g opacity="0.5">
<g opacity="0.5">
<g opacity="0.5">
<path opacity="0.5" d="M59.517 178.342C59.2068 176.252 60.8343 174.377 62.9521 174.377H179.72L179.74 174.245C180.05 172.154 178.427 170.279 176.305 170.279H59.2505C57.1327 170.279 55.5052 172.154 55.8154 174.245L65.2862 237.876L65.6417 240.264H68.7344L59.517 178.342Z" fill="white"/>
</g>
</g>
</g>
</g>
<g opacity="0.35">
<g opacity="0.35">
<g opacity="0.35">
<g opacity="0.35">
<path opacity="0.35" d="M173.013 170.279H164.794C167.911 181.651 166.191 207.332 146.084 220.753C120.844 237.602 75.3548 237.494 65.6973 237.875L66.0527 240.263H166.626L176.448 174.244C176.759 172.154 175.135 170.279 173.013 170.279Z" fill="#00227B"/>
</g>
</g>
</g>
</g>
<path d="M171.207 241.757H64.35L54.3362 174.462C54.1239 173.037 54.5443 171.595 55.4889 170.504C56.4334 169.413 57.8049 168.788 59.2505 168.788H176.306C177.753 168.788 179.124 169.413 180.068 170.504C181.013 171.595 181.433 173.037 181.221 174.462L171.207 241.757ZM66.9326 238.774H168.624L178.26 174.024C178.345 173.45 178.182 172.891 177.801 172.451C177.42 172.011 176.89 171.769 176.306 171.769H59.2505C58.6672 171.769 58.1365 172.012 57.7556 172.451C57.3746 172.891 57.2117 173.45 57.2973 174.024L66.9326 238.774Z" fill="#00227B"/>
<g opacity="0.3">
<g opacity="0.3">
<g opacity="0.3">
<g opacity="0.3">
<path opacity="0.3" d="M73.9417 224.839C69.9859 216.155 67.1054 201.329 67.7546 192.604C68.4037 183.88 73.4843 186.549 75.0591 197.725C79.2494 227.469 75.7074 228.717 73.9417 224.839Z" fill="white"/>
</g>
</g>
</g>
</g>
<path d="M131.402 197.781C131.529 196.667 131.677 195.54 131.458 194.406C131.36 194.283 131.27 194.157 131.172 194.034C130.848 193.918 130.533 193.766 130.196 193.682C127.823 193.071 125.417 192.83 122.973 193.04C119.787 193.313 116.862 194.292 114.347 196.31C113.436 197.038 112.606 197.86 111.756 198.657C111.528 198.873 111.353 198.964 111.033 198.818C110.28 198.477 109.469 198.324 108.645 198.283C106.436 198.183 104.465 198.895 102.626 200.044C100.633 201.295 99.0269 202.966 97.5312 204.755C96.8943 205.513 97.142 206.358 98.0898 206.676C98.688 206.871 99.2861 207.062 99.8843 207.257C101.318 207.719 102.747 208.177 104.177 208.638C104.173 208.683 104.177 208.705 104.171 208.728C104.159 208.755 104.147 208.787 104.127 208.814C103.531 209.578 103.676 210.285 104.304 210.948C104.372 211.022 104.43 211.11 104.489 211.189C104.818 211.62 105.155 212.056 105.504 212.505C105.027 212.872 104.559 213.183 104.145 213.559C103.936 213.749 103.752 214.024 103.673 214.297C103.539 214.737 103.768 215.187 104.161 215.418C104.578 215.668 105.008 215.657 105.396 215.378C105.889 215.029 106.359 214.651 106.86 214.27C107.334 214.891 107.782 215.478 108.232 216.059C108.748 216.72 109.103 216.833 109.903 216.613C110.049 216.568 110.193 216.536 110.365 216.495C110.376 216.665 110.389 216.802 110.397 216.93C110.499 218.988 110.593 221.05 110.706 223.103C110.758 224.076 111.53 224.536 112.412 224.119C113.21 223.745 114.006 223.348 114.788 222.926C116.589 221.95 118.228 220.755 119.535 219.166C121.172 217.167 122.077 214.933 121.654 212.295C121.636 212.191 121.723 212.013 121.813 211.96C122.616 211.444 123.441 210.961 124.245 210.442C126.061 209.263 127.522 207.73 128.664 205.9C130.215 203.411 131.072 200.68 131.402 197.781ZM105.359 206.689C103.704 206.152 101.989 205.595 100.227 205.024C102.047 203.096 103.974 201.413 106.569 200.702C107.691 200.395 108.986 200.421 109.752 200.731C108.299 202.706 106.842 204.681 105.359 206.689ZM119.276 215.16C118.856 216.496 118.053 217.585 117.064 218.555C115.834 219.747 114.404 220.637 112.857 221.448C112.764 219.555 112.668 217.703 112.575 215.89C114.914 214.983 117.201 214.099 119.5 213.209C119.589 213.84 119.48 214.509 119.276 215.16ZM127.913 202.486C127.16 204.255 126.173 205.866 124.765 207.2C123.678 208.224 122.445 209.045 121.147 209.775C117.627 211.754 113.855 213.118 109.998 214.272C109.809 214.326 109.694 214.316 109.57 214.144C109.301 213.763 108.999 213.396 108.714 213.02C108.695 212.999 108.689 212.963 108.662 212.896C108.76 212.818 108.866 212.74 108.972 212.659C111.173 210.975 113.384 209.298 115.586 207.611C116.222 207.13 116.25 206.304 115.661 205.827C115.249 205.491 114.707 205.496 114.232 205.852C112.908 206.858 111.586 207.865 110.265 208.875C109.279 209.626 108.302 210.373 107.278 211.155C106.927 210.698 106.588 210.28 106.282 209.841C106.23 209.763 106.283 209.564 106.354 209.467C107.527 207.723 108.69 205.97 109.911 204.257C111.119 202.555 112.492 200.984 114.003 199.541C115.419 198.178 116.954 196.975 118.809 196.258C119.999 195.797 121.227 195.483 122.495 195.348C122.61 195.332 122.777 195.446 122.858 195.552C124.148 197.212 125.421 198.875 126.699 200.541C127.082 201.037 127.461 201.542 127.856 202.032C127.974 202.18 127.989 202.306 127.913 202.486ZM128.678 200.163C127.404 198.501 126.16 196.884 124.914 195.26C124.916 195.223 124.927 195.18 124.932 195.14C126.383 195.313 127.837 195.49 129.305 195.665C129.278 197.241 129.045 198.684 128.678 200.163Z" fill="#00227B"/>
<path d="M127.858 202.032C127.462 201.542 127.084 201.036 126.701 200.54C125.424 198.874 124.15 197.211 122.86 195.551C122.779 195.445 122.612 195.331 122.497 195.347C121.229 195.482 120.001 195.796 118.811 196.258C116.955 196.975 115.421 198.178 114.005 199.54C112.494 200.983 111.121 202.554 109.913 204.256C108.692 205.97 107.529 207.723 106.356 209.466C106.285 209.563 106.232 209.762 106.284 209.84C106.589 210.28 106.928 210.697 107.28 211.154C108.304 210.372 109.281 209.624 110.267 208.874C111.588 207.864 112.91 206.857 114.234 205.851C114.709 205.496 115.251 205.491 115.663 205.826C116.252 206.304 116.225 207.13 115.588 207.611C113.386 209.297 111.175 210.975 108.974 212.658C108.868 212.739 108.761 212.817 108.664 212.895C108.691 212.963 108.697 212.998 108.716 213.019C109.001 213.395 109.303 213.762 109.572 214.143C109.696 214.316 109.811 214.325 110 214.271C113.857 213.117 117.629 211.753 121.149 209.774C122.446 209.045 123.68 208.223 124.767 207.199C126.174 205.865 127.163 204.254 127.915 202.485C127.989 202.306 127.975 202.18 127.858 202.032ZM123.995 204.569C122.312 205.832 119.931 205.523 118.668 203.87C117.396 202.219 117.716 199.849 119.383 198.569C121.02 197.314 123.402 197.638 124.678 199.29C125.939 200.931 125.631 203.336 123.995 204.569Z" fill="white"/>
<path d="M128.677 200.162C127.403 198.503 126.159 196.884 124.914 195.26C124.918 195.222 124.926 195.182 124.932 195.14C126.383 195.314 127.837 195.491 129.308 195.666C129.28 197.239 129.043 198.684 128.677 200.162Z" fill="#DB2C2C"/>
<path d="M109.752 200.732C108.297 202.704 106.841 204.681 105.359 206.69C103.702 206.15 101.987 205.595 100.225 205.024C102.048 203.094 103.974 201.411 106.569 200.702C107.69 200.394 108.984 200.421 109.752 200.732Z" fill="#DB2C2C"/>
<path d="M117.062 218.555C115.833 219.748 114.404 220.639 112.856 221.448C112.762 219.557 112.667 217.705 112.574 215.89C114.913 214.984 117.2 214.101 119.502 213.208C119.59 213.841 119.479 214.508 119.277 215.161C118.857 216.498 118.054 217.585 117.062 218.555Z" fill="#DB2C2C"/>
<path d="M124.677 199.29C123.401 197.638 121.019 197.315 119.382 198.569C117.715 199.85 117.394 202.219 118.666 203.87C119.93 205.523 122.311 205.832 123.994 204.569C125.631 203.336 125.939 200.931 124.677 199.29ZM122.86 203.175C122.008 203.818 120.755 203.648 120.091 202.8C119.404 201.926 119.592 200.641 120.501 199.969C121.353 199.333 122.629 199.517 123.27 200.37C123.939 201.256 123.755 202.501 122.86 203.175Z" fill="#00227B"/>
<path d="M122.859 203.175C122.007 203.818 120.754 203.648 120.089 202.799C119.405 201.926 119.59 200.641 120.499 199.969C121.352 199.335 122.627 199.517 123.268 200.368C123.938 201.256 123.756 202.502 122.859 203.175Z" fill="#22A7F0"/>
<path d="M179.222 177.728C179.222 177.728 171.141 173.908 163.552 177.334C156.284 180.615 151.143 203.975 160.559 209.893C166.37 213.545 170.325 210.319 173.613 211.266C178.49 212.671 188.495 188.618 179.222 177.728Z" fill="white"/>
<g opacity="0.35">
<path d="M182.868 192.93C181.911 202.721 176.721 212.161 173.615 211.266C170.325 210.32 166.37 213.547 160.559 209.895C156.061 207.066 154.886 200.261 155.679 193.559C156.214 197.469 157.73 200.819 160.559 202.597C166.37 206.245 170.24 204.55 173.615 203.969C177.787 203.249 181.188 198.71 182.868 192.93Z" fill="#00227B"/>
</g>
<path d="M166.517 213.17C164.557 213.17 162.287 212.743 159.759 211.154C157.496 209.731 155.861 207.429 154.901 204.312C154.094 201.696 153.793 198.509 154.029 195.094C154.308 191.05 155.306 186.901 156.839 183.411C158.011 180.746 160.019 177.292 162.933 175.976C171.061 172.307 179.507 176.212 179.862 176.38L180.154 176.518L180.362 176.763C184.606 181.747 184.851 188.633 184.309 193.531C183.698 199.05 181.743 204.905 179.204 208.81C176.662 212.722 174.533 213.084 173.196 212.699C172.328 212.449 171.231 212.623 169.961 212.826C168.957 212.986 167.803 213.17 166.517 213.17ZM170.469 177.394C168.194 177.394 166.085 177.828 164.17 178.693C162.594 179.404 160.922 181.56 159.583 184.608C158.204 187.745 157.269 191.641 157.016 195.3C156.57 201.759 158.152 206.619 161.357 208.633C164.588 210.664 167.08 210.266 169.489 209.882C171.047 209.634 172.518 209.399 174.029 209.835C174.203 209.865 175.448 209.386 177.205 206.355C181.302 199.287 183.9 185.939 178.295 178.951C177.66 178.688 176.025 178.069 173.886 177.699C172.71 177.496 171.57 177.394 170.469 177.394Z" fill="#00227B"/>
</svg>
